<svg width="18" height="18" viewBox="0 0 18 18" fill="none" xmlns="http://www.w3.org/2000/svg">
<g id="book">
<path id="Vector" d="M7.11 2.95715C5.83981 2.3844 4.06442 2.10383 1.6875 2.09387C1.46333 2.091 1.24357 2.15273 1.0575 2.27084C0.904779 2.36834 0.779762 2.49978 0.693448 2.65361C0.607134 2.80745 0.562167 2.97895 0.562502 3.15305V12.6525C0.562502 13.2946 1.04625 13.779 1.6875 13.779C4.18606 13.779 6.69235 13.9995 8.19352 15.3396C8.21405 15.358 8.23986 15.3703 8.26775 15.375C8.29563 15.3797 8.32435 15.3765 8.35034 15.3659C8.37634 15.3553 8.39846 15.3377 8.41395 15.3153C8.42945 15.2929 8.43764 15.2667 8.4375 15.24V4.04688C8.43756 3.97136 8.42046 3.89671 8.38734 3.82797C8.35423 3.75923 8.30587 3.69801 8.24555 3.64844C7.90169 3.37081 7.51973 3.13828 7.11 2.95715ZM16.9425 2.26985C16.7563 2.15203 16.5366 2.09064 16.3125 2.09387C13.9356 2.10383 12.1602 2.38307 10.89 2.95715C10.4803 3.13795 10.0982 3.37002 9.7541 3.64711C9.69392 3.69677 9.64568 3.75802 9.61263 3.82674C9.57958 3.89546 9.56249 3.97007 9.5625 4.04555V15.2393C9.56249 15.265 9.5705 15.2902 9.58555 15.3116C9.6006 15.333 9.62201 15.3497 9.64709 15.3597C9.67218 15.3696 9.69982 15.3724 9.72655 15.3676C9.75328 15.3628 9.77791 15.3506 9.79735 15.3326C10.6998 14.4859 12.2836 13.7781 16.3139 13.7784C16.6123 13.7784 16.8984 13.6664 17.1094 13.4672C17.3204 13.2679 17.4389 12.9977 17.4389 12.7159V3.15338C17.4393 2.97894 17.3942 2.80709 17.3077 2.653C17.2211 2.49891 17.0957 2.36732 16.9425 2.26985Z" fill="#414141"/>
</g>
</svg>
