<svg width="18" height="18" viewBox="0 0 18 18" fill="none" xmlns="http://www.w3.org/2000/svg">
<g id="book">
<path id="Vector" d="M7.11 2.95703C5.83981 2.38428 4.06442 2.10371 1.6875 2.09375C1.46333 2.09087 1.24357 2.15261 1.0575 2.27072C0.904779 2.36822 0.779762 2.49966 0.693448 2.65349C0.607134 2.80732 0.562167 2.97883 0.562502 3.15293V12.6523C0.562502 13.2945 1.04625 13.7789 1.6875 13.7789C4.18606 13.7789 6.69235 13.9994 8.19352 15.3395C8.21405 15.3579 8.23986 15.3702 8.26775 15.3749C8.29563 15.3796 8.32435 15.3764 8.35034 15.3658C8.37634 15.3552 8.39846 15.3376 8.41395 15.3152C8.42945 15.2928 8.43764 15.2666 8.4375 15.2399V4.04676C8.43756 3.97124 8.42046 3.89659 8.38734 3.82785C8.35423 3.75911 8.30587 3.69789 8.24555 3.64832C7.90169 3.37069 7.51973 3.13816 7.11 2.95703ZM16.9425 2.26973C16.7563 2.15191 16.5366 2.09052 16.3125 2.09375C13.9356 2.10371 12.1602 2.38295 10.89 2.95703C10.4803 3.13783 10.0982 3.3699 9.7541 3.64699C9.69392 3.69665 9.64568 3.7579 9.61263 3.82662C9.57958 3.89534 9.56249 3.96995 9.5625 4.04543V15.2392C9.56249 15.2649 9.5705 15.29 9.58555 15.3114C9.6006 15.3329 9.62201 15.3496 9.64709 15.3596C9.67218 15.3695 9.69982 15.3723 9.72655 15.3675C9.75328 15.3626 9.77791 15.3505 9.79735 15.3325C10.6998 14.4858 12.2836 13.7779 16.3139 13.7783C16.6123 13.7783 16.8984 13.6663 17.1094 13.4671C17.3204 13.2678 17.4389 12.9976 17.4389 12.7158V3.15326C17.4393 2.97882 17.3942 2.80697 17.3077 2.65288C17.2211 2.49878 17.0957 2.36719 16.9425 2.26973Z" fill="#FFC46B"/>
</g>
</svg>
