<svg width="18" height="19" viewBox="0 0 18 19" fill="none" xmlns="http://www.w3.org/2000/svg">
<g id="calendar-number">
<path id="Vector" d="M14.625 2.74995H14.0625V2.20327C14.0625 1.90057 13.8298 1.64077 13.5271 1.62565C13.451 1.62199 13.375 1.6338 13.3037 1.66038C13.2323 1.68696 13.1671 1.72775 13.112 1.78028C13.0568 1.8328 13.0129 1.89598 12.983 1.96597C12.953 2.03596 12.9375 2.11131 12.9375 2.18745V2.74995H5.0625V2.20327C5.0625 1.90057 4.82977 1.64077 4.52707 1.62565C4.45102 1.62199 4.37501 1.6338 4.30365 1.66038C4.2323 1.68696 4.16708 1.72775 4.11196 1.78028C4.05684 1.8328 4.01295 1.89598 3.98296 1.96597C3.95297 2.03596 3.93751 2.11131 3.9375 2.18745V2.74995H3.375C2.77826 2.74995 2.20597 2.987 1.78401 3.40896C1.36205 3.83092 1.125 4.40321 1.125 4.99995V5.42182C1.125 5.45912 1.13982 5.49489 1.16619 5.52126C1.19256 5.54763 1.22833 5.56245 1.26562 5.56245H16.7344C16.7717 5.56245 16.8074 5.54763 16.8338 5.52126C16.8602 5.49489 16.875 5.45912 16.875 5.42182V4.99995C16.875 4.40321 16.6379 3.83092 16.216 3.40896C15.794 2.987 15.2217 2.74995 14.625 2.74995ZM16.7344 6.68745H1.26562C1.22833 6.68745 1.19256 6.70226 1.16619 6.72864C1.13982 6.75501 1.125 6.79078 1.125 6.82807V15.1249C1.125 15.7217 1.36205 16.294 1.78401 16.7159C2.20597 17.1379 2.77826 17.375 3.375 17.375H14.625C15.2217 17.375 15.794 17.1379 16.216 16.7159C16.6379 16.294 16.875 15.7217 16.875 15.1249V6.82807C16.875 6.79078 16.8602 6.75501 16.8338 6.72864C16.8074 6.70226 16.7717 6.68745 16.7344 6.68745ZM8.42273 14.6011C7.99488 14.939 7.41199 15.1249 6.78094 15.1249C5.80113 15.1249 5.07656 14.4865 4.75383 13.9402C4.67784 13.8117 4.656 13.6583 4.69312 13.5137C4.73024 13.3691 4.82327 13.2452 4.95176 13.1692C5.08024 13.0932 5.23365 13.0714 5.37824 13.1085C5.52283 13.1456 5.64674 13.2387 5.72273 13.3671C5.7607 13.4318 6.11473 13.9999 6.78094 13.9999C7.36664 13.9999 8.05078 13.7437 8.05078 13.0219C8.05078 12.8022 8.00789 12.4963 7.80469 12.2878C7.50445 11.9806 7.00488 11.8424 6.74613 11.8424C6.59695 11.8424 6.45387 11.7831 6.34839 11.6777C6.2429 11.5722 6.18363 11.4291 6.18363 11.2799C6.18363 11.1307 6.2429 10.9877 6.34839 10.8822C6.45387 10.7767 6.59695 10.7174 6.74613 10.7174C6.91664 10.7174 7.3582 10.626 7.63488 10.343C7.70974 10.2694 7.76882 10.1813 7.80853 10.0841C7.84824 9.98691 7.86774 9.88266 7.86586 9.77768C7.86586 8.961 6.85934 8.93745 6.74473 8.93745C6.13512 8.93745 5.90801 9.31046 5.89852 9.32628C5.86197 9.3918 5.81269 9.44935 5.75357 9.49554C5.69445 9.54173 5.62669 9.57562 5.55427 9.59523C5.48185 9.61484 5.40625 9.61976 5.3319 9.60971C5.25755 9.59966 5.18597 9.57483 5.12136 9.5367C5.05675 9.49857 5.00042 9.4479 4.95568 9.38767C4.91095 9.32744 4.87872 9.25887 4.86088 9.18599C4.84305 9.11312 4.83997 9.03742 4.85184 8.96334C4.8637 8.88926 4.89026 8.8183 4.92996 8.75464C5.19855 8.29761 5.8166 7.81245 6.74473 7.81245C7.3227 7.81245 7.86129 7.98014 8.26102 8.28425C8.73176 8.64284 8.99086 9.173 8.99086 9.77768C8.99244 10.0284 8.94436 10.2769 8.84939 10.5089C8.75441 10.7409 8.61442 10.9518 8.4375 11.1294C8.39707 11.1709 8.35453 11.2096 8.31129 11.2472C8.4169 11.3235 8.51592 11.4085 8.6073 11.5014C8.97855 11.8811 9.17473 12.4067 9.17473 13.0219C9.17578 13.6568 8.90824 14.2176 8.42273 14.6011ZM12.9375 14.4218C12.9375 14.571 12.8782 14.7141 12.7727 14.8196C12.6673 14.9251 12.5242 14.9843 12.375 14.9843C12.2258 14.9843 12.0827 14.9251 11.9773 14.8196C11.8718 14.7141 11.8125 14.571 11.8125 14.4218V9.51015L11.0211 10.0934C10.9617 10.1372 10.8941 10.169 10.8224 10.1867C10.7507 10.2045 10.6762 10.208 10.6031 10.1969C10.5301 10.1859 10.4599 10.1606 10.3966 10.1224C10.3333 10.0843 10.2782 10.034 10.2343 9.97456C10.1905 9.91509 10.1588 9.84757 10.141 9.77585C10.1232 9.70413 10.1198 9.62961 10.1308 9.55655C10.1418 9.48349 10.1671 9.41332 10.2053 9.35004C10.2435 9.28676 10.2937 9.23162 10.3532 9.18776L11.8796 8.06276C11.9763 7.99153 12.0932 7.95309 12.2133 7.95307H12.375C12.5242 7.95307 12.6673 8.01234 12.7727 8.11783C12.8782 8.22332 12.9375 8.36639 12.9375 8.51557V14.4218Z" fill="#FFC46B"/>
</g>
</svg>
