<svg width="18" height="19" viewBox="0 0 18 19" fill="none" xmlns="http://www.w3.org/2000/svg">
<g id="calendar-number">
<path id="Vector" d="M14.625 2.74999H14.0625V2.20331C14.0625 1.90062 13.8298 1.64081 13.5271 1.6257C13.451 1.62203 13.375 1.63385 13.3037 1.66043C13.2323 1.68701 13.1671 1.72779 13.112 1.78032C13.0568 1.83285 13.0129 1.89602 12.983 1.96601C12.953 2.036 12.9375 2.11135 12.9375 2.18749V2.74999H5.0625V2.20331C5.0625 1.90062 4.82977 1.64081 4.52707 1.6257C4.45102 1.62203 4.37501 1.63385 4.30365 1.66043C4.2323 1.68701 4.16708 1.72779 4.11196 1.78032C4.05684 1.83285 4.01295 1.89602 3.98296 1.96601C3.95297 2.036 3.93751 2.11135 3.9375 2.18749V2.74999H3.375C2.77826 2.74999 2.20597 2.98705 1.78401 3.409C1.36205 3.83096 1.125 4.40326 1.125 4.99999V5.42187C1.125 5.45917 1.13982 5.49493 1.16619 5.52131C1.19256 5.54768 1.22833 5.56249 1.26562 5.56249H16.7344C16.7717 5.56249 16.8074 5.54768 16.8338 5.52131C16.8602 5.49493 16.875 5.45917 16.875 5.42187V4.99999C16.875 4.40326 16.6379 3.83096 16.216 3.409C15.794 2.98705 15.2217 2.74999 14.625 2.74999ZM16.7344 6.68749H1.26562C1.22833 6.68749 1.19256 6.70231 1.16619 6.72868C1.13982 6.75505 1.125 6.79082 1.125 6.82812V15.125C1.125 15.7217 1.36205 16.294 1.78401 16.716C2.20597 17.1379 2.77826 17.375 3.375 17.375H14.625C15.2217 17.375 15.794 17.1379 16.216 16.716C16.6379 16.294 16.875 15.7217 16.875 15.125V6.82812C16.875 6.79082 16.8602 6.75505 16.8338 6.72868C16.8074 6.70231 16.7717 6.68749 16.7344 6.68749ZM8.42273 14.6012C7.99488 14.939 7.41199 15.125 6.78094 15.125C5.80113 15.125 5.07656 14.4866 4.75383 13.9402C4.67784 13.8117 4.656 13.6583 4.69312 13.5137C4.73024 13.3692 4.82327 13.2452 4.95176 13.1693C5.08024 13.0933 5.23365 13.0714 5.37824 13.1085C5.52283 13.1457 5.64674 13.2387 5.72273 13.3672C5.7607 13.4319 6.11473 14 6.78094 14C7.36664 14 8.05078 13.7437 8.05078 13.0219C8.05078 12.8022 8.00789 12.4964 7.80469 12.2879C7.50445 11.9806 7.00488 11.8425 6.74613 11.8425C6.59695 11.8425 6.45387 11.7832 6.34839 11.6777C6.2429 11.5722 6.18363 11.4291 6.18363 11.28C6.18363 11.1308 6.2429 10.9877 6.34839 10.8822C6.45387 10.7767 6.59695 10.7175 6.74613 10.7175C6.91664 10.7175 7.3582 10.626 7.63488 10.343C7.70974 10.2694 7.76882 10.1813 7.80853 10.0841C7.84824 9.98696 7.86774 9.8827 7.86586 9.77773C7.86586 8.96105 6.85934 8.9375 6.74473 8.9375C6.13512 8.9375 5.90801 9.3105 5.89852 9.32632C5.86197 9.39184 5.81269 9.44939 5.75357 9.49558C5.69445 9.54177 5.62669 9.57567 5.55427 9.59527C5.48185 9.61488 5.40625 9.61981 5.3319 9.60975C5.25755 9.5997 5.18597 9.57488 5.12136 9.53675C5.05675 9.49861 5.00042 9.44794 4.95568 9.38771C4.91095 9.32748 4.87872 9.25891 4.86088 9.18604C4.84305 9.11317 4.83997 9.03746 4.85184 8.96338C4.8637 8.8893 4.89026 8.81834 4.92996 8.75468C5.19855 8.29765 5.8166 7.81249 6.74473 7.81249C7.3227 7.81249 7.86129 7.98019 8.26102 8.28429C8.73176 8.64289 8.99086 9.17304 8.99086 9.77773C8.99244 10.0284 8.94436 10.2769 8.84939 10.509C8.75441 10.741 8.61442 10.9519 8.4375 11.1295C8.39707 11.171 8.35453 11.2096 8.31129 11.2473C8.4169 11.3236 8.51592 11.4086 8.6073 11.5014C8.97855 11.8811 9.17473 12.4067 9.17473 13.0219C9.17578 13.6569 8.90824 14.2176 8.42273 14.6012ZM12.9375 14.4219C12.9375 14.5711 12.8782 14.7141 12.7727 14.8196C12.6673 14.9251 12.5242 14.9844 12.375 14.9844C12.2258 14.9844 12.0827 14.9251 11.9773 14.8196C11.8718 14.7141 11.8125 14.5711 11.8125 14.4219V9.51019L11.0211 10.0934C10.9617 10.1373 10.8941 10.169 10.8224 10.1868C10.7507 10.2045 10.6762 10.208 10.6031 10.197C10.5301 10.1859 10.4599 10.1606 10.3966 10.1225C10.3333 10.0843 10.2782 10.0341 10.2343 9.9746C10.1905 9.91514 10.1588 9.84762 10.141 9.7759C10.1232 9.70418 10.1198 9.62966 10.1308 9.5566C10.1418 9.48354 10.1671 9.41336 10.2053 9.35009C10.2435 9.28681 10.2937 9.23167 10.3532 9.18781L11.8796 8.06281C11.9763 7.99157 12.0932 7.95314 12.2133 7.95312H12.375C12.5242 7.95312 12.6673 8.01238 12.7727 8.11787C12.8782 8.22336 12.9375 8.36644 12.9375 8.51562V14.4219Z" fill="#414141"/>
</g>
</svg>
