<svg width="18" height="19" viewBox="0 0 18 19" fill="none" xmlns="http://www.w3.org/2000/svg">
<g id="checkbox">
<path id="Vector" d="M14.0625 2.1875H3.9375C3.34096 2.18815 2.76904 2.42541 2.34723 2.84723C1.92541 3.26904 1.68815 3.84096 1.6875 4.4375V14.5625C1.68815 15.159 1.92541 15.731 2.34723 16.1528C2.76904 16.5746 3.34096 16.8118 3.9375 16.8125H14.0625C14.659 16.8118 15.231 16.5746 15.6528 16.1528C16.0746 15.731 16.3118 15.159 16.3125 14.5625V4.4375C16.3118 3.84096 16.0746 3.26904 15.6528 2.84723C15.231 2.42541 14.659 2.18815 14.0625 2.1875ZM12.8057 7.04926L8.08066 12.6743C8.02883 12.736 7.96434 12.7859 7.89155 12.8205C7.81877 12.8551 7.73939 12.8737 7.65879 12.875H7.6493C7.57045 12.875 7.4925 12.8584 7.42049 12.8263C7.34847 12.7942 7.28402 12.7473 7.23129 12.6887L5.20629 10.4387C5.15486 10.3841 5.11486 10.3198 5.08862 10.2496C5.06239 10.1794 5.05046 10.1046 5.05354 10.0297C5.05661 9.95482 5.07463 9.88129 5.10653 9.81345C5.13843 9.7456 5.18357 9.68482 5.23929 9.63468C5.29502 9.58453 5.3602 9.54602 5.43102 9.52143C5.50184 9.49683 5.57686 9.48664 5.65167 9.49146C5.72648 9.49627 5.79958 9.51599 5.86666 9.54945C5.93375 9.58292 5.99346 9.62945 6.0423 9.68633L7.63453 11.4554L11.9443 6.32574C12.041 6.21397 12.1778 6.14474 12.3251 6.133C12.4724 6.12126 12.6184 6.16796 12.7316 6.26301C12.8447 6.35806 12.9159 6.49382 12.9298 6.64095C12.9437 6.78807 12.8991 6.93474 12.8057 7.04926Z" fill="#FFC46B"/>
</g>
</svg>
