<svg width="18" height="19" viewBox="0 0 18 19" fill="none" xmlns="http://www.w3.org/2000/svg">
<g id="home" clip-path="url(#clip0_101_734)">
<path id="Vector" d="M9.1659 4.06068C9.11373 4.01061 9.04431 3.98267 8.97211 3.98267C8.89991 3.98267 8.83049 4.01061 8.77832 4.06068L2.32687 10.2436C2.29947 10.2699 2.27767 10.3015 2.26279 10.3365C2.24791 10.3715 2.24027 10.4091 2.24031 10.4472L2.23926 16.2501C2.23926 16.5484 2.3574 16.8346 2.5677 17.0455C2.778 17.2565 3.06323 17.3751 3.36064 17.3751H6.72829C6.877 17.3751 7.01961 17.3158 7.12476 17.2103C7.22991 17.1048 7.28898 16.9617 7.28898 16.8126V12.0313C7.28898 11.9567 7.31852 11.8852 7.3711 11.8324C7.42367 11.7797 7.49498 11.7501 7.56933 11.7501H10.3728C10.4471 11.7501 10.5184 11.7797 10.571 11.8324C10.6236 11.8852 10.6531 11.9567 10.6531 12.0313V16.8126C10.6531 16.9617 10.7122 17.1048 10.8174 17.2103C10.9225 17.3158 11.0651 17.3751 11.2138 17.3751H14.5801C14.8775 17.3751 15.1627 17.2565 15.373 17.0455C15.5833 16.8346 15.7015 16.5484 15.7015 16.2501V10.4472C15.7015 10.4091 15.6939 10.3715 15.679 10.3365C15.6641 10.3015 15.6423 10.2699 15.6149 10.2436L9.1659 4.06068Z" fill="#FFC46B"/>
<path id="Vector_2" d="M17.2032 9.0834L14.5819 6.56762V2.75C14.5819 2.60082 14.5229 2.45774 14.4177 2.35225C14.3126 2.24676 14.17 2.1875 14.0212 2.1875H12.3392C12.1905 2.1875 12.0479 2.24676 11.9427 2.35225C11.8376 2.45774 11.7785 2.60082 11.7785 2.75V3.875L9.74878 1.92805C9.55885 1.73539 9.2764 1.625 8.97117 1.625C8.667 1.625 8.38525 1.73539 8.19532 1.9284L0.741627 9.0827C0.523659 9.29363 0.496325 9.64062 0.694669 9.86914C0.744477 9.92682 0.805462 9.97373 0.873915 10.007C0.942367 10.0403 1.01686 10.0593 1.09284 10.0627C1.16883 10.0662 1.24474 10.0542 1.31593 10.0273C1.38713 10.0004 1.45212 9.95929 1.50697 9.90641L8.77844 2.93562C8.83061 2.88556 8.90003 2.85761 8.97223 2.85761C9.04443 2.85761 9.11384 2.88556 9.16601 2.93562L16.4382 9.90641C16.5453 10.0095 16.6888 10.0657 16.8372 10.0628C16.9856 10.0599 17.1268 9.9981 17.2298 9.89094C17.445 9.66734 17.4271 9.2982 17.2032 9.0834Z" fill="#FFC46B"/>
</g>
<defs>
<clipPath id="clip0_101_734">
<rect width="17.9421" height="18" fill="white" transform="translate(0 0.5)"/>
</clipPath>
</defs>
</svg>
