<svg width="18" height="19" viewBox="0 0 18 19" fill="none" xmlns="http://www.w3.org/2000/svg">
<g id="home" clip-path="url(#clip0_101_880)">
<path id="Vector" d="M9.1659 4.06062C9.11373 4.01055 9.04431 3.9826 8.97211 3.9826C8.89991 3.9826 8.83049 4.01055 8.77832 4.06062L2.32687 10.2435C2.29947 10.2698 2.27767 10.3014 2.26279 10.3364C2.24791 10.3714 2.24027 10.4091 2.24031 10.4471L2.23926 16.25C2.23926 16.5484 2.3574 16.8345 2.5677 17.0455C2.778 17.2565 3.06323 17.375 3.36064 17.375H6.72829C6.877 17.375 7.01961 17.3157 7.12476 17.2102C7.22991 17.1048 7.28898 16.9617 7.28898 16.8125V12.0312C7.28898 11.9567 7.31852 11.8851 7.3711 11.8324C7.42367 11.7796 7.49498 11.75 7.56933 11.75H10.3728C10.4471 11.75 10.5184 11.7796 10.571 11.8324C10.6236 11.8851 10.6531 11.9567 10.6531 12.0312V16.8125C10.6531 16.9617 10.7122 17.1048 10.8174 17.2102C10.9225 17.3157 11.0651 17.375 11.2138 17.375H14.5801C14.8775 17.375 15.1627 17.2565 15.373 17.0455C15.5833 16.8345 15.7015 16.5484 15.7015 16.25V10.4471C15.7015 10.4091 15.6939 10.3714 15.679 10.3364C15.6641 10.3014 15.6423 10.2698 15.6149 10.2435L9.1659 4.06062Z" fill="#414141"/>
<path id="Vector_2" d="M17.2031 9.0834L14.5818 6.56762V2.75C14.5818 2.60082 14.5227 2.45774 14.4176 2.35225C14.3124 2.24676 14.1698 2.1875 14.0211 2.1875H12.3391C12.1903 2.1875 12.0477 2.24676 11.9426 2.35225C11.8374 2.45774 11.7784 2.60082 11.7784 2.75V3.875L9.74866 1.92805C9.55873 1.73539 9.27628 1.625 8.97105 1.625C8.66688 1.625 8.38513 1.73539 8.1952 1.9284L0.741505 9.0827C0.523536 9.29363 0.496203 9.64062 0.694547 9.86914C0.744355 9.92682 0.80534 9.97373 0.873793 10.007C0.942245 10.0403 1.01673 10.0593 1.09272 10.0627C1.16871 10.0662 1.24461 10.0542 1.31581 10.0273C1.387 10.0004 1.452 9.95929 1.50685 9.90641L8.77831 2.93562C8.83049 2.88556 8.8999 2.85761 8.9721 2.85761C9.0443 2.85761 9.11372 2.88556 9.16589 2.93562L16.4381 9.90641C16.5452 10.0095 16.6887 10.0657 16.8371 10.0628C16.9854 10.0599 17.1266 9.9981 17.2297 9.89094C17.4448 9.66734 17.427 9.2982 17.2031 9.0834Z" fill="#414141"/>
</g>
<defs>
<clipPath id="clip0_101_880">
<rect width="17.9421" height="18" fill="white" transform="translate(0 0.5)"/>
</clipPath>
</defs>
</svg>
