<svg width="18" height="19" viewBox="0 0 18 19" fill="none" xmlns="http://www.w3.org/2000/svg">
<g id="ribbon">
<path id="Vector" d="M9.45703 12.2988C9.30867 12.3098 9.15891 12.3153 9.00774 12.3153C8.82387 12.3153 8.64211 12.3069 8.46246 12.291C7.57374 12.2123 6.71253 11.9423 5.93784 11.4997C5.16315 11.0571 4.49326 10.4523 3.97406 9.72674C3.96039 9.70723 3.94198 9.69152 3.92057 9.68107C3.89916 9.67063 3.87545 9.66579 3.85165 9.66702C3.82786 9.66825 3.80477 9.67551 3.78455 9.6881C3.76433 9.7007 3.74765 9.71823 3.73606 9.73904L1.20481 14.2883C1.10848 14.464 1.09336 14.675 1.19496 14.8465C1.24785 14.9316 1.32153 15.0018 1.40906 15.0505C1.49658 15.0992 1.59507 15.1249 1.69524 15.125H4.43742C4.53294 15.1214 4.62768 15.1435 4.71185 15.1888C4.79602 15.2341 4.86658 15.301 4.91625 15.3827L6.27539 17.6562C6.32513 17.7406 6.3957 17.8108 6.48035 17.86C6.56499 17.9093 6.66087 17.9359 6.75879 17.9375C6.96762 17.9259 7.18383 17.7902 7.27066 17.6L9.59484 12.497C9.60488 12.4749 9.60899 12.4505 9.60677 12.4263C9.60456 12.402 9.59609 12.3788 9.58221 12.3588C9.56832 12.3388 9.54949 12.3228 9.52754 12.3123C9.5056 12.3017 9.48131 12.2971 9.45703 12.2988ZM16.792 14.277L14.2773 9.73588C14.2657 9.71527 14.2491 9.69792 14.229 9.68545C14.2089 9.67297 14.1859 9.66577 14.1623 9.66451C14.1387 9.66324 14.1151 9.66796 14.0938 9.67823C14.0725 9.68849 14.0541 9.70397 14.0404 9.72322C13.3488 10.6922 12.3931 11.4417 11.2873 11.8825C11.1515 11.936 11.0417 12.04 10.9807 12.1726L9.68484 15.0237C9.66816 15.0601 9.65952 15.0997 9.65952 15.1397C9.65952 15.1798 9.66816 15.2194 9.68484 15.2558L10.749 17.5968C10.8352 17.787 11.051 17.9259 11.2595 17.9375C11.3575 17.9351 11.4532 17.9076 11.5375 17.8576C11.6219 17.8076 11.692 17.7368 11.7411 17.652L13.0957 15.3816C13.1973 15.2111 13.3815 15.1239 13.5802 15.125H16.3494C16.5839 15.125 16.7614 15.0026 16.8416 14.7734C16.8698 14.692 16.8799 14.6055 16.8714 14.5198C16.8628 14.4341 16.8357 14.3512 16.792 14.277Z" fill="#FFC46B"/>
<path id="Vector_2" d="M9.00914 7.8125C9.94132 7.8125 10.697 7.05698 10.697 6.125C10.697 5.19302 9.94132 4.4375 9.00914 4.4375C8.07697 4.4375 7.32129 5.19302 7.32129 6.125C7.32129 7.05698 8.07697 7.8125 9.00914 7.8125Z" fill="#FFC46B"/>
<path id="Vector_3" d="M9.00916 1.0625C6.21705 1.0625 3.94666 3.33324 3.94666 6.125C3.94666 8.91676 6.2181 11.1875 9.00916 11.1875C11.8002 11.1875 14.0717 8.91641 14.0717 6.125C14.0717 3.33359 11.8009 1.0625 9.00916 1.0625ZM9.00916 8.9375C8.4529 8.9375 7.90913 8.77255 7.44661 8.46351C6.9841 8.15447 6.62362 7.71521 6.41074 7.2013C6.19787 6.68738 6.14218 6.12188 6.2507 5.57631C6.35922 5.03074 6.62708 4.5296 7.02042 4.13626C7.41375 3.74293 7.91489 3.47506 8.46046 3.36654C9.00603 3.25802 9.57153 3.31372 10.0855 3.52659C10.5994 3.73946 11.0386 4.09995 11.3477 4.56246C11.6567 5.02497 11.8217 5.56874 11.8217 6.125C11.8207 6.87064 11.5241 7.58547 10.9969 8.11271C10.4696 8.63996 9.75479 8.93657 9.00916 8.9375Z" fill="#FFC46B"/>
</g>
</svg>
