<svg width="18" height="18" viewBox="0 0 18 18" fill="none" xmlns="http://www.w3.org/2000/svg">
<path id="Vector" d="M9 0C4.03745 0 0 4.03745 0 9C0 13.9625 4.03745 18 9 18C13.9625 18 18 13.9625 18 9C18 4.03745 13.9625 0 9 0ZM6.82702 5.05471C7.37524 4.47361 8.14673 4.15385 9 4.15385C9.85327 4.15385 10.6178 4.47577 11.1682 5.0599C11.726 5.65183 11.9973 6.44712 11.9332 7.30212C11.8051 9 10.4898 10.3846 9 10.3846C7.51024 10.3846 6.19226 9 6.06678 7.30168C6.00317 6.43976 6.27404 5.64188 6.82702 5.05471ZM9 16.6154C7.98337 16.6161 6.97697 16.4126 6.04045 16.017C5.10394 15.6214 4.2564 15.0419 3.54808 14.3126C3.95375 13.7341 4.47064 13.2422 5.06856 12.8657C6.17149 12.1587 7.56736 11.7692 9 11.7692C10.4326 11.7692 11.8285 12.1587 12.9301 12.8657C13.5286 13.242 14.0459 13.7339 14.4519 14.3126C13.7437 15.0419 12.8961 15.6216 11.9596 16.0171C11.0231 16.4127 10.0166 16.6162 9 16.6154Z" fill="#FFC46B"/>
</svg>
